<?xml version="1.0" encoding="UTF-8"?>
<svg version="1.1" xmlns="http://www.w3.org/2000/svg" width="40" height="40">
<path d="M0 0 C-1 4 -1 4 -8 11 C-1.4 11.33 5.2 11.66 12 12 C12 12.99 12 13.98 12 15 C5.4 15.33 -1.2 15.66 -8 16 C-5.91666667 17.98567708 -3.83333333 19.97135417 -1.75 21.95703125 C0 24 0 24 0 27 C-4.37657556 26.55085263 -6.86225815 23.65308771 -9.8125 20.6875 C-10.32748047 20.20087891 -10.84246094 19.71425781 -11.37304688 19.21289062 C-14.94721675 15.65785955 -14.94721675 15.65785955 -15.16015625 13.00390625 C-13.41784114 9.99445288 -11.09244763 7.66050653 -8.625 5.25 C-8.13 4.74339844 -7.635 4.23679687 -7.125 3.71484375 C-3.38011708 0 -3.38011708 0 0 0 Z " fill="#F82323" transform="translate(22,7)"/>
</svg>
